<svg width="108" height="80"><defs id="SvgjsDefs2020"></defs><g id="SvgjsG2021" featurekey="root" fill="#ffffff"></g><g id="SvgjsG2022" featurekey="text1" fill="#ffffff" transform="matrix(4.189944223370775,0,0,4.189944223370775,-0.8379888571611618,-14.469272905898979)"><path d="M0.2 20 l0 -2 c0.24 0.02 0.52 0.02 0.76 0.02 c0.7 0 1.26 -0.26 1.26 -1.34 l0 -10.68 l2.2 0 l0 10.52 c0 2.8 -1.5 3.52 -3.16 3.52 c-0.4 0 -0.7 0 -1.06 -0.04 z M5.28 8 l0 -2 l6.8 0 l0 2 l-2.3 0 l0 12 l-2.2 0 l0 -12 l-2.3 0 z M13.040000000000001 20 l0 -14 l2.2 0 l0 12 l3.62 0 l0 2 l-5.82 0 z M19.54 9.36 c0 -2.24 1.1 -3.52 3.24 -3.52 s3.24 1.28 3.24 3.52 l0 0.44 l-2.08 0 l0 -0.58 c0 -1 -0.4 -1.38 -1.1 -1.38 s-1.1 0.38 -1.1 1.38 c0 1.02 0.44 1.78 1.88 3.04 c1.84 1.62 2.42 2.78 2.42 4.38 c0 2.24 -1.12 3.52 -3.28 3.52 s-3.28 -1.28 -3.28 -3.52 l0 -0.86 l2.08 0 l0 1 c0 1 0.44 1.36 1.14 1.36 s1.14 -0.36 1.14 -1.36 c0 -1.02 -0.44 -1.78 -1.88 -3.04 c-1.84 -1.62 -2.42 -2.78 -2.42 -4.38 z"></path></g></svg>
